# Wavefront OBJ file automatically generated by Tiled2Unity

# Vertices (Count = 582)
v 0 -2400 0
v -80 -2400 0
v -80 -2320 0
v 0 -2320 0
v -160 -2400 0
v -160 -2320 0
v -240 -2400 0
v -240 -2320 0
v -320 -2400 0
v -320 -2320 0
v -560 -2400 0
v -640 -2400 0
v -640 -2320 0
v -560 -2320 0
v -720 -2400 0
v -720 -2320 0
v -800 -2400 0
v -800 -2320 0
v -880 -2400 0
v -880 -2320 0
v -960 -2400 0
v -960 -2320 0
v -1040 -2400 0
v -1040 -2320 0
v -1120 -2400 0
v -1120 -2320 0
v -1200 -2400 0
v -1200 -2320 0
v -1280 -2400 0
v -1280 -2320 0
v -1360 -2400 0
v -1360 -2320 0
v -1440 -2400 0
v -1440 -2320 0
v -1520 -2400 0
v -1520 -2320 0
v -1600 -2400 0
v -1600 -2320 0
v -1680 -2400 0
v -1680 -2320 0
v -1760 -2400 0
v -1760 -2320 0
v -1840 -2400 0
v -1840 -2320 0
v -1920 -2400 0
v -1920 -2320 0
v -2000 -2400 0
v -2000 -2320 0
v -2080 -2400 0
v -2080 -2320 0
v -2160 -2400 0
v -2160 -2320 0
v -2240 -2400 0
v -2240 -2320 0
v -2320 -2400 0
v -2320 -2320 0
v -2400 -2400 0
v -2400 -2320 0
v -2480 -2400 0
v -2480 -2320 0
v -2560 -2400 0
v -2560 -2320 0
v -2800 -2400 0
v -2880 -2400 0
v -2880 -2320 0
v -2800 -2320 0
v -2960 -2400 0
v -2960 -2320 0
v -3040 -2400 0
v -3040 -2320 0
v -3120 -2400 0
v -3120 -2320 0
v -3200 -2400 0
v -3200 -2320 0
v -80 -2240 0
v 0 -2240 0
v -3200 -2240 0
v -3120 -2240 0
v -80 -2160 0
v 0 -2160 0
v -3200 -2160 0
v -3120 -2160 0
v -80 -2080 0
v 0 -2080 0
v -240 -2160 0
v -320 -2160 0
v -320 -2080 0
v -240 -2080 0
v -400 -2160 0
v -400 -2080 0
v -480 -2160 0
v -480 -2080 0
v -560 -2160 0
v -560 -2080 0
v -1120 -2160 0
v -1200 -2160 0
v -1200 -2080 0
v -1120 -2080 0
v -1440 -2160 0
v -1520 -2160 0
v -1520 -2080 0
v -1440 -2080 0
v -2000 -2160 0
v -2080 -2160 0
v -2080 -2080 0
v -2000 -2080 0
v -2560 -2160 0
v -2640 -2160 0
v -2640 -2080 0
v -2560 -2080 0
v -2720 -2160 0
v -2720 -2080 0
v -2800 -2160 0
v -2800 -2080 0
v -3200 -2080 0
v -3120 -2080 0
v -80 -2000 0
v 0 -2000 0
v -1200 -2000 0
v -1120 -2000 0
v -1520 -2000 0
v -1440 -2000 0
v -3200 -2000 0
v -3120 -2000 0
v -80 -1920 0
v 0 -1920 0
v -1200 -1920 0
v -1120 -1920 0
v -1520 -1920 0
v -1440 -1920 0
v -3200 -1920 0
v -3120 -1920 0
v -80 -1840 0
v 0 -1840 0
v -160 -1920 0
v -160 -1840 0
v -240 -1920 0
v -240 -1840 0
v -320 -1920 0
v -320 -1840 0
v -400 -1920 0
v -400 -1840 0
v -800 -1920 0
v -880 -1920 0
v -880 -1840 0
v -800 -1840 0
v -960 -1920 0
v -960 -1840 0
v -1040 -1920 0
v -1040 -1840 0
v -1200 -1840 0
v -1120 -1840 0
v -1520 -1840 0
v -1440 -1840 0
v -1600 -1920 0
v -1600 -1840 0
v -1680 -1920 0
v -1680 -1840 0
v -1760 -1920 0
v -1760 -1840 0
v -1920 -1920 0
v -2000 -1920 0
v -2000 -1840 0
v -1920 -1840 0
v -2880 -1920 0
v -2960 -1920 0
v -2960 -1840 0
v -2880 -1840 0
v -3040 -1920 0
v -3040 -1840 0
v -3120 -1840 0
v -3200 -1840 0
v -80 -1760 0
v 0 -1760 0
v -1200 -1760 0
v -1120 -1760 0
v -1280 -1840 0
v -1360 -1840 0
v -1360 -1760 0
v -1280 -1760 0
v -1520 -1760 0
v -1440 -1760 0
v -3200 -1760 0
v -3120 -1760 0
v -80 -1680 0
v 0 -1680 0
v -1200 -1680 0
v -1120 -1680 0
v -1520 -1680 0
v -1440 -1680 0
v -2320 -1760 0
v -2400 -1760 0
v -2400 -1680 0
v -2320 -1680 0
v -2480 -1760 0
v -2480 -1680 0
v -2560 -1760 0
v -2560 -1680 0
v -3200 -1680 0
v -3120 -1680 0
v -80 -1600 0
v 0 -1600 0
v -320 -1680 0
v -400 -1680 0
v -400 -1600 0
v -320 -1600 0
v -480 -1680 0
v -480 -1600 0
v -560 -1680 0
v -560 -1600 0
v -1200 -1600 0
v -1120 -1600 0
v -1520 -1600 0
v -1440 -1600 0
v -2000 -1680 0
v -2080 -1680 0
v -2080 -1600 0
v -2000 -1600 0
v -3200 -1600 0
v -3120 -1600 0
v -80 -1520 0
v 0 -1520 0
v -1200 -1520 0
v -1120 -1520 0
v -1520 -1520 0
v -1440 -1520 0
v -3200 -1520 0
v -3120 -1520 0
v -80 -1440 0
v 0 -1440 0
v -1200 -1440 0
v -1120 -1440 0
v -1520 -1440 0
v -1440 -1440 0
v -3200 -1440 0
v -3120 -1440 0
v -80 -1360 0
v 0 -1360 0
v -720 -1440 0
v -800 -1440 0
v -800 -1360 0
v -720 -1360 0
v -880 -1440 0
v -880 -1360 0
v -960 -1440 0
v -960 -1360 0
v -1040 -1440 0
v -1040 -1360 0
v -1120 -1360 0
v -1200 -1360 0
v -1280 -1440 0
v -1280 -1360 0
v -1360 -1440 0
v -1440 -1360 0
v -1360 -1360 0
v -1520 -1360 0
v -1600 -1440 0
v -1680 -1440 0
v -1680 -1360 0
v -1600 -1360 0
v -1760 -1440 0
v -1760 -1360 0
v -1840 -1440 0
v -1840 -1360 0
v -1920 -1440 0
v -1920 -1360 0
v -2080 -1440 0
v -2160 -1440 0
v -2160 -1360 0
v -2080 -1360 0
v -2240 -1440 0
v -2240 -1360 0
v -2320 -1440 0
v -2320 -1360 0
v -3200 -1360 0
v -3120 -1360 0
v -80 -1280 0
v 0 -1280 0
v -2720 -1360 0
v -2800 -1360 0
v -2800 -1280 0
v -2720 -1280 0
v -2880 -1360 0
v -2880 -1280 0
v -2960 -1360 0
v -2960 -1280 0
v -3200 -1280 0
v -3120 -1280 0
v -80 -1200 0
v 0 -1200 0
v -3200 -1200 0
v -3120 -1200 0
v -80 -1120 0
v 0 -1120 0
v -160 -1200 0
v -160 -1120 0
v -240 -1200 0
v -240 -1120 0
v -320 -1200 0
v -320 -1120 0
v -400 -1200 0
v -400 -1120 0
v -480 -1200 0
v -480 -1120 0
v -560 -1200 0
v -560 -1120 0
v -3200 -1120 0
v -3120 -1120 0
v -80 -1040 0
v 0 -1040 0
v -1120 -1120 0
v -1200 -1120 0
v -1200 -1040 0
v -1120 -1040 0
v -1280 -1120 0
v -1280 -1040 0
v -1360 -1120 0
v -1360 -1040 0
v -1440 -1120 0
v -1440 -1040 0
v -1520 -1120 0
v -1520 -1040 0
v -1600 -1120 0
v -1600 -1040 0
v -1840 -1120 0
v -1920 -1120 0
v -1920 -1040 0
v -1840 -1040 0
v -2000 -1120 0
v -2000 -1040 0
v -2080 -1120 0
v -2080 -1040 0
v -2320 -1120 0
v -2400 -1120 0
v -2400 -1040 0
v -2320 -1040 0
v -2480 -1120 0
v -2480 -1040 0
v -2560 -1120 0
v -2560 -1040 0
v -3200 -1040 0
v -3120 -1040 0
v -80 -960 0
v 0 -960 0
v -1200 -960 0
v -1120 -960 0
v -3200 -960 0
v -3120 -960 0
v -80 -880 0
v 0 -880 0
v -1200 -880 0
v -1120 -880 0
v -3200 -880 0
v -3120 -880 0
v -80 -800 0
v 0 -800 0
v -1200 -800 0
v -1120 -800 0
v -1920 -880 0
v -2000 -880 0
v -2000 -800 0
v -1920 -800 0
v -2080 -880 0
v -2080 -800 0
v -2160 -880 0
v -2160 -800 0
v -3200 -800 0
v -3120 -800 0
v -80 -720 0
v 0 -720 0
v -640 -800 0
v -720 -800 0
v -720 -720 0
v -640 -720 0
v -800 -800 0
v -800 -720 0
v -880 -800 0
v -880 -720 0
v -960 -800 0
v -960 -720 0
v -1040 -800 0
v -1040 -720 0
v -1120 -720 0
v -1200 -720 0
v -2800 -800 0
v -2880 -800 0
v -2880 -720 0
v -2800 -720 0
v -2960 -800 0
v -2960 -720 0
v -3040 -800 0
v -3040 -720 0
v -3120 -720 0
v -3200 -720 0
v -80 -640 0
v 0 -640 0
v -1200 -640 0
v -1120 -640 0
v -3200 -640 0
v -3120 -640 0
v -80 -560 0
v 0 -560 0
v -1200 -560 0
v -1120 -560 0
v -1280 -640 0
v -1280 -560 0
v -1360 -640 0
v -1360 -560 0
v -1520 -640 0
v -1600 -640 0
v -1600 -560 0
v -1520 -560 0
v -1680 -640 0
v -1680 -560 0
v -1760 -640 0
v -1760 -560 0
v -3200 -560 0
v -3120 -560 0
v -80 -480 0
v 0 -480 0
v -1360 -480 0
v -1280 -480 0
v -2240 -560 0
v -2320 -560 0
v -2320 -480 0
v -2240 -480 0
v -3200 -480 0
v -3120 -480 0
v -80 -400 0
v 0 -400 0
v -320 -480 0
v -400 -480 0
v -400 -400 0
v -320 -400 0
v -480 -480 0
v -480 -400 0
v -560 -480 0
v -560 -400 0
v -800 -480 0
v -880 -480 0
v -880 -400 0
v -800 -400 0
v -1360 -400 0
v -1280 -400 0
v -2320 -400 0
v -2240 -400 0
v -3200 -400 0
v -3120 -400 0
v -80 -320 0
v 0 -320 0
v -880 -320 0
v -800 -320 0
v -1360 -320 0
v -1280 -320 0
v -1440 -400 0
v -1440 -320 0
v -1520 -400 0
v -1520 -320 0
v -1600 -400 0
v -1600 -320 0
v -1680 -400 0
v -1680 -320 0
v -1920 -400 0
v -2000 -400 0
v -2000 -320 0
v -1920 -320 0
v -2320 -320 0
v -2240 -320 0
v -2400 -400 0
v -2400 -320 0
v -2480 -400 0
v -2480 -320 0
v -2560 -400 0
v -2560 -320 0
v -2640 -400 0
v -2640 -320 0
v -2720 -400 0
v -2720 -320 0
v -2800 -400 0
v -2800 -320 0
v -2880 -400 0
v -2880 -320 0
v -2960 -400 0
v -3040 -400 0
v -3040 -320 0
v -2960 -320 0
v -3200 -320 0
v -3120 -320 0
v -80 -240 0
v 0 -240 0
v -880 -240 0
v -800 -240 0
v -2000 -240 0
v -1920 -240 0
v -2880 -240 0
v -2800 -240 0
v -3200 -240 0
v -3120 -240 0
v -80 -160 0
v 0 -160 0
v -880 -160 0
v -800 -160 0
v -2000 -160 0
v -1920 -160 0
v -2880 -160 0
v -2800 -160 0
v -3200 -160 0
v -3120 -160 0
v -80 -80 0
v 0 -80 0
v -880 -80 0
v -800 -80 0
v -2000 -80 0
v -1920 -80 0
v -2880 -80 0
v -2800 -80 0
v -3200 -80 0
v -3120 -80 0
v -80 0 0
v 0 0 0
v -160 -80 0
v -160 0 0
v -240 -80 0
v -240 0 0
v -320 -80 0
v -320 0 0
v -560 -80 0
v -640 -80 0
v -640 0 0
v -560 0 0
v -720 -80 0
v -720 0 0
v -800 0 0
v -880 0 0
v -960 -80 0
v -960 0 0
v -1040 -80 0
v -1040 0 0
v -1120 -80 0
v -1120 0 0
v -1200 -80 0
v -1200 0 0
v -1280 -80 0
v -1280 0 0
v -1360 -80 0
v -1360 0 0
v -1440 -80 0
v -1440 0 0
v -1520 -80 0
v -1520 0 0
v -1600 -80 0
v -1600 0 0
v -1680 -80 0
v -1680 0 0
v -1760 -80 0
v -1760 0 0
v -1840 -80 0
v -1840 0 0
v -1920 0 0
v -2000 0 0
v -2080 -80 0
v -2080 0 0
v -2160 -80 0
v -2160 0 0
v -2240 -80 0
v -2240 0 0
v -2320 -80 0
v -2320 0 0
v -2400 -80 0
v -2400 0 0
v -2480 -80 0
v -2480 0 0
v -2560 -80 0
v -2560 0 0
v -2880 0 0
v -2800 0 0
v -2960 -80 0
v -2960 0 0
v -3040 -80 0
v -3040 0 0
v -3120 0 0
v -3200 0 0

# Texture Coorindates (Count = 4)
vt 0.0001220703 0.0001220703
vt 0.9998779 0.0001220703
vt 0.9998779 0.9998779
vt 0.0001220703 0.9998779

# Normal
vn 0 0 -1

# Groups (Count = 1)
g mesh_[00]_[04]
f  1/1/1  2/2/1  3/3/1  4/4/1 
f  2/1/1  5/2/1  6/3/1  3/4/1 
f  5/1/1  7/2/1  8/3/1  6/4/1 
f  7/1/1  9/2/1  10/3/1  8/4/1 
f  11/1/1  12/2/1  13/3/1  14/4/1 
f  12/1/1  15/2/1  16/3/1  13/4/1 
f  15/1/1  17/2/1  18/3/1  16/4/1 
f  17/1/1  19/2/1  20/3/1  18/4/1 
f  19/1/1  21/2/1  22/3/1  20/4/1 
f  21/1/1  23/2/1  24/3/1  22/4/1 
f  23/1/1  25/2/1  26/3/1  24/4/1 
f  25/1/1  27/2/1  28/3/1  26/4/1 
f  27/1/1  29/2/1  30/3/1  28/4/1 
f  29/1/1  31/2/1  32/3/1  30/4/1 
f  31/1/1  33/2/1  34/3/1  32/4/1 
f  33/1/1  35/2/1  36/3/1  34/4/1 
f  35/1/1  37/2/1  38/3/1  36/4/1 
f  37/1/1  39/2/1  40/3/1  38/4/1 
f  39/1/1  41/2/1  42/3/1  40/4/1 
f  41/1/1  43/2/1  44/3/1  42/4/1 
f  43/1/1  45/2/1  46/3/1  44/4/1 
f  45/1/1  47/2/1  48/3/1  46/4/1 
f  47/1/1  49/2/1  50/3/1  48/4/1 
f  49/1/1  51/2/1  52/3/1  50/4/1 
f  51/1/1  53/2/1  54/3/1  52/4/1 
f  53/1/1  55/2/1  56/3/1  54/4/1 
f  55/1/1  57/2/1  58/3/1  56/4/1 
f  57/1/1  59/2/1  60/3/1  58/4/1 
f  59/1/1  61/2/1  62/3/1  60/4/1 
f  63/1/1  64/2/1  65/3/1  66/4/1 
f  64/1/1  67/2/1  68/3/1  65/4/1 
f  67/1/1  69/2/1  70/3/1  68/4/1 
f  69/1/1  71/2/1  72/3/1  70/4/1 
f  71/1/1  73/2/1  74/3/1  72/4/1 
f  4/1/1  3/2/1  75/3/1  76/4/1 
f  72/1/1  74/2/1  77/3/1  78/4/1 
f  76/1/1  75/2/1  79/3/1  80/4/1 
f  78/1/1  77/2/1  81/3/1  82/4/1 
f  80/1/1  79/2/1  83/3/1  84/4/1 
f  85/1/1  86/2/1  87/3/1  88/4/1 
f  86/1/1  89/2/1  90/3/1  87/4/1 
f  89/1/1  91/2/1  92/3/1  90/4/1 
f  91/1/1  93/2/1  94/3/1  92/4/1 
f  95/1/1  96/2/1  97/3/1  98/4/1 
f  99/1/1  100/2/1  101/3/1  102/4/1 
f  103/1/1  104/2/1  105/3/1  106/4/1 
f  107/1/1  108/2/1  109/3/1  110/4/1 
f  108/1/1  111/2/1  112/3/1  109/4/1 
f  111/1/1  113/2/1  114/3/1  112/4/1 
f  82/1/1  81/2/1  115/3/1  116/4/1 
f  84/1/1  83/2/1  117/3/1  118/4/1 
f  98/1/1  97/2/1  119/3/1  120/4/1 
f  102/1/1  101/2/1  121/3/1  122/4/1 
f  116/1/1  115/2/1  123/3/1  124/4/1 
f  118/1/1  117/2/1  125/3/1  126/4/1 
f  120/1/1  119/2/1  127/3/1  128/4/1 
f  122/1/1  121/2/1  129/3/1  130/4/1 
f  124/1/1  123/2/1  131/3/1  132/4/1 
f  126/1/1  125/2/1  133/3/1  134/4/1 
f  125/1/1  135/2/1  136/3/1  133/4/1 
f  135/1/1  137/2/1  138/3/1  136/4/1 
f  137/1/1  139/2/1  140/3/1  138/4/1 
f  139/1/1  141/2/1  142/3/1  140/4/1 
f  143/1/1  144/2/1  145/3/1  146/4/1 
f  144/1/1  147/2/1  148/3/1  145/4/1 
f  147/1/1  149/2/1  150/3/1  148/4/1 
f  128/1/1  127/2/1  151/3/1  152/4/1 
f  130/1/1  129/2/1  153/3/1  154/4/1 
f  129/1/1  155/2/1  156/3/1  153/4/1 
f  155/1/1  157/2/1  158/3/1  156/4/1 
f  157/1/1  159/2/1  160/3/1  158/4/1 
f  161/1/1  162/2/1  163/3/1  164/4/1 
f  165/1/1  166/2/1  167/3/1  168/4/1 
f  166/1/1  169/2/1  170/3/1  167/4/1 
f  169/1/1  132/2/1  171/3/1  170/4/1 
f  132/1/1  131/2/1  172/3/1  171/4/1 
f  134/1/1  133/2/1  173/3/1  174/4/1 
f  152/1/1  151/2/1  175/3/1  176/4/1 
f  177/1/1  178/2/1  179/3/1  180/4/1 
f  154/1/1  153/2/1  181/3/1  182/4/1 
f  171/1/1  172/2/1  183/3/1  184/4/1 
f  174/1/1  173/2/1  185/3/1  186/4/1 
f  176/1/1  175/2/1  187/3/1  188/4/1 
f  182/1/1  181/2/1  189/3/1  190/4/1 
f  191/1/1  192/2/1  193/3/1  194/4/1 
f  192/1/1  195/2/1  196/3/1  193/4/1 
f  195/1/1  197/2/1  198/3/1  196/4/1 
f  184/1/1  183/2/1  199/3/1  200/4/1 
f  186/1/1  185/2/1  201/3/1  202/4/1 
f  203/1/1  204/2/1  205/3/1  206/4/1 
f  204/1/1  207/2/1  208/3/1  205/4/1 
f  207/1/1  209/2/1  210/3/1  208/4/1 
f  188/1/1  187/2/1  211/3/1  212/4/1 
f  190/1/1  189/2/1  213/3/1  214/4/1 
f  215/1/1  216/2/1  217/3/1  218/4/1 
f  200/1/1  199/2/1  219/3/1  220/4/1 
f  202/1/1  201/2/1  221/3/1  222/4/1 
f  212/1/1  211/2/1  223/3/1  224/4/1 
f  214/1/1  213/2/1  225/3/1  226/4/1 
f  220/1/1  219/2/1  227/3/1  228/4/1 
f  222/1/1  221/2/1  229/3/1  230/4/1 
f  224/1/1  223/2/1  231/3/1  232/4/1 
f  226/1/1  225/2/1  233/3/1  234/4/1 
f  228/1/1  227/2/1  235/3/1  236/4/1 
f  230/1/1  229/2/1  237/3/1  238/4/1 
f  239/1/1  240/2/1  241/3/1  242/4/1 
f  240/1/1  243/2/1  244/3/1  241/4/1 
f  243/1/1  245/2/1  246/3/1  244/4/1 
f  245/1/1  247/2/1  248/3/1  246/4/1 
f  247/1/1  232/2/1  249/3/1  248/4/1 
f  232/1/1  231/2/1  250/3/1  249/4/1 
f  231/1/1  251/2/1  252/3/1  250/4/1 
f  253/1/1  234/2/1  254/3/1  255/4/1 
f  234/1/1  233/2/1  256/3/1  254/4/1 
f  257/1/1  258/2/1  259/3/1  260/4/1 
f  258/1/1  261/2/1  262/3/1  259/4/1 
f  261/1/1  263/2/1  264/3/1  262/4/1 
f  263/1/1  265/2/1  266/3/1  264/4/1 
f  267/1/1  268/2/1  269/3/1  270/4/1 
f  268/1/1  271/2/1  272/3/1  269/4/1 
f  271/1/1  273/2/1  274/3/1  272/4/1 
f  236/1/1  235/2/1  275/3/1  276/4/1 
f  238/1/1  237/2/1  277/3/1  278/4/1 
f  279/1/1  280/2/1  281/3/1  282/4/1 
f  280/1/1  283/2/1  284/3/1  281/4/1 
f  283/1/1  285/2/1  286/3/1  284/4/1 
f  276/1/1  275/2/1  287/3/1  288/4/1 
f  278/1/1  277/2/1  289/3/1  290/4/1 
f  288/1/1  287/2/1  291/3/1  292/4/1 
f  290/1/1  289/2/1  293/3/1  294/4/1 
f  289/1/1  295/2/1  296/3/1  293/4/1 
f  295/1/1  297/2/1  298/3/1  296/4/1 
f  297/1/1  299/2/1  300/3/1  298/4/1 
f  299/1/1  301/2/1  302/3/1  300/4/1 
f  301/1/1  303/2/1  304/3/1  302/4/1 
f  303/1/1  305/2/1  306/3/1  304/4/1 
f  292/1/1  291/2/1  307/3/1  308/4/1 
f  294/1/1  293/2/1  309/3/1  310/4/1 
f  311/1/1  312/2/1  313/3/1  314/4/1 
f  312/1/1  315/2/1  316/3/1  313/4/1 
f  315/1/1  317/2/1  318/3/1  316/4/1 
f  317/1/1  319/2/1  320/3/1  318/4/1 
f  319/1/1  321/2/1  322/3/1  320/4/1 
f  321/1/1  323/2/1  324/3/1  322/4/1 
f  325/1/1  326/2/1  327/3/1  328/4/1 
f  326/1/1  329/2/1  330/3/1  327/4/1 
f  329/1/1  331/2/1  332/3/1  330/4/1 
f  333/1/1  334/2/1  335/3/1  336/4/1 
f  334/1/1  337/2/1  338/3/1  335/4/1 
f  337/1/1  339/2/1  340/3/1  338/4/1 
f  308/1/1  307/2/1  341/3/1  342/4/1 
f  310/1/1  309/2/1  343/3/1  344/4/1 
f  314/1/1  313/2/1  345/3/1  346/4/1 
f  342/1/1  341/2/1  347/3/1  348/4/1 
f  344/1/1  343/2/1  349/3/1  350/4/1 
f  346/1/1  345/2/1  351/3/1  352/4/1 
f  348/1/1  347/2/1  353/3/1  354/4/1 
f  350/1/1  349/2/1  355/3/1  356/4/1 
f  352/1/1  351/2/1  357/3/1  358/4/1 
f  359/1/1  360/2/1  361/3/1  362/4/1 
f  360/1/1  363/2/1  364/3/1  361/4/1 
f  363/1/1  365/2/1  366/3/1  364/4/1 
f  354/1/1  353/2/1  367/3/1  368/4/1 
f  356/1/1  355/2/1  369/3/1  370/4/1 
f  371/1/1  372/2/1  373/3/1  374/4/1 
f  372/1/1  375/2/1  376/3/1  373/4/1 
f  375/1/1  377/2/1  378/3/1  376/4/1 
f  377/1/1  379/2/1  380/3/1  378/4/1 
f  379/1/1  381/2/1  382/3/1  380/4/1 
f  381/1/1  358/2/1  383/3/1  382/4/1 
f  358/1/1  357/2/1  384/3/1  383/4/1 
f  385/1/1  386/2/1  387/3/1  388/4/1 
f  386/1/1  389/2/1  390/3/1  387/4/1 
f  389/1/1  391/2/1  392/3/1  390/4/1 
f  391/1/1  368/2/1  393/3/1  392/4/1 
f  368/1/1  367/2/1  394/3/1  393/4/1 
f  370/1/1  369/2/1  395/3/1  396/4/1 
f  383/1/1  384/2/1  397/3/1  398/4/1 
f  393/1/1  394/2/1  399/3/1  400/4/1 
f  396/1/1  395/2/1  401/3/1  402/4/1 
f  398/1/1  397/2/1  403/3/1  404/4/1 
f  397/1/1  405/2/1  406/3/1  403/4/1 
f  405/1/1  407/2/1  408/3/1  406/4/1 
f  409/1/1  410/2/1  411/3/1  412/4/1 
f  410/1/1  413/2/1  414/3/1  411/4/1 
f  413/1/1  415/2/1  416/3/1  414/4/1 
f  400/1/1  399/2/1  417/3/1  418/4/1 
f  402/1/1  401/2/1  419/3/1  420/4/1 
f  406/1/1  408/2/1  421/3/1  422/4/1 
f  423/1/1  424/2/1  425/3/1  426/4/1 
f  418/1/1  417/2/1  427/3/1  428/4/1 
f  420/1/1  419/2/1  429/3/1  430/4/1 
f  431/1/1  432/2/1  433/3/1  434/4/1 
f  432/1/1  435/2/1  436/3/1  433/4/1 
f  435/1/1  437/2/1  438/3/1  436/4/1 
f  439/1/1  440/2/1  441/3/1  442/4/1 
f  422/1/1  421/2/1  443/3/1  444/4/1 
f  426/1/1  425/2/1  445/3/1  446/4/1 
f  428/1/1  427/2/1  447/3/1  448/4/1 
f  430/1/1  429/2/1  449/3/1  450/4/1 
f  442/1/1  441/2/1  451/3/1  452/4/1 
f  444/1/1  443/2/1  453/3/1  454/4/1 
f  443/1/1  455/2/1  456/3/1  453/4/1 
f  455/1/1  457/2/1  458/3/1  456/4/1 
f  457/1/1  459/2/1  460/3/1  458/4/1 
f  459/1/1  461/2/1  462/3/1  460/4/1 
f  463/1/1  464/2/1  465/3/1  466/4/1 
f  446/1/1  445/2/1  467/3/1  468/4/1 
f  445/1/1  469/2/1  470/3/1  467/4/1 
f  469/1/1  471/2/1  472/3/1  470/4/1 
f  471/1/1  473/2/1  474/3/1  472/4/1 
f  473/1/1  475/2/1  476/3/1  474/4/1 
f  475/1/1  477/2/1  478/3/1  476/4/1 
f  477/1/1  479/2/1  480/3/1  478/4/1 
f  479/1/1  481/2/1  482/3/1  480/4/1 
f  483/1/1  484/2/1  485/3/1  486/4/1 
f  448/1/1  447/2/1  487/3/1  488/4/1 
f  450/1/1  449/2/1  489/3/1  490/4/1 
f  452/1/1  451/2/1  491/3/1  492/4/1 
f  466/1/1  465/2/1  493/3/1  494/4/1 
f  480/1/1  482/2/1  495/3/1  496/4/1 
f  488/1/1  487/2/1  497/3/1  498/4/1 
f  490/1/1  489/2/1  499/3/1  500/4/1 
f  492/1/1  491/2/1  501/3/1  502/4/1 
f  494/1/1  493/2/1  503/3/1  504/4/1 
f  496/1/1  495/2/1  505/3/1  506/4/1 
f  498/1/1  497/2/1  507/3/1  508/4/1 
f  500/1/1  499/2/1  509/3/1  510/4/1 
f  502/1/1  501/2/1  511/3/1  512/4/1 
f  504/1/1  503/2/1  513/3/1  514/4/1 
f  506/1/1  505/2/1  515/3/1  516/4/1 
f  508/1/1  507/2/1  517/3/1  518/4/1 
f  510/1/1  509/2/1  519/3/1  520/4/1 
f  509/1/1  521/2/1  522/3/1  519/4/1 
f  521/1/1  523/2/1  524/3/1  522/4/1 
f  523/1/1  525/2/1  526/3/1  524/4/1 
f  527/1/1  528/2/1  529/3/1  530/4/1 
f  528/1/1  531/2/1  532/3/1  529/4/1 
f  531/1/1  512/2/1  533/3/1  532/4/1 
f  512/1/1  511/2/1  534/3/1  533/4/1 
f  511/1/1  535/2/1  536/3/1  534/4/1 
f  535/1/1  537/2/1  538/3/1  536/4/1 
f  537/1/1  539/2/1  540/3/1  538/4/1 
f  539/1/1  541/2/1  542/3/1  540/4/1 
f  541/1/1  543/2/1  544/3/1  542/4/1 
f  543/1/1  545/2/1  546/3/1  544/4/1 
f  545/1/1  547/2/1  548/3/1  546/4/1 
f  547/1/1  549/2/1  550/3/1  548/4/1 
f  549/1/1  551/2/1  552/3/1  550/4/1 
f  551/1/1  553/2/1  554/3/1  552/4/1 
f  553/1/1  555/2/1  556/3/1  554/4/1 
f  555/1/1  557/2/1  558/3/1  556/4/1 
f  557/1/1  514/2/1  559/3/1  558/4/1 
f  514/1/1  513/2/1  560/3/1  559/4/1 
f  513/1/1  561/2/1  562/3/1  560/4/1 
f  561/1/1  563/2/1  564/3/1  562/4/1 
f  563/1/1  565/2/1  566/3/1  564/4/1 
f  565/1/1  567/2/1  568/3/1  566/4/1 
f  567/1/1  569/2/1  570/3/1  568/4/1 
f  569/1/1  571/2/1  572/3/1  570/4/1 
f  571/1/1  573/2/1  574/3/1  572/4/1 
f  516/1/1  515/2/1  575/3/1  576/4/1 
f  515/1/1  577/2/1  578/3/1  575/4/1 
f  577/1/1  579/2/1  580/3/1  578/4/1 
f  579/1/1  518/2/1  581/3/1  580/4/1 
f  518/1/1  517/2/1  582/3/1  581/4/1 
